<svg xmlns="http://www.w3.org/2000/svg" viewBox="0 0 706.02 541.7"><defs><style>.cls-1{fill:#e8f1cf;}.cls-2{fill:#bfc0c0;}.cls-3{fill:#fbdad1;}.cls-3,.cls-4,.cls-5,.cls-6{stroke:#898989;stroke-width:0.57px;}.cls-4{fill:#e0e1e1;}.cls-5{fill:#aed0ee;}.cls-6{fill:#f3d397;}.cls-7{font-size:21px;fill:#005e5b;font-family:DFYuan-W5-WIN-BF, DFYuanMedium-B5;}</style></defs><title>B_03_A_公衛學院</title><g id="底板_單色"><polygon class="cls-1" points="309.72 337.42 0 255.93 68.09 0 377.67 81.45 309.72 337.42"/><polygon class="cls-1" points="637.8 423.73 332.14 343.31 400.09 87.35 706.02 167.83 637.8 423.73"/><polygon class="cls-1" points="606.63 541.71 500.45 513.77 524.05 424.85 630.33 452.81 606.63 541.71"/></g><g id="建築_01_多色"><g id="建築陰影"><polygon class="cls-2" points="53.43 162.31 51.53 169.63 47.55 168.46 42.58 187.81 43.85 188.08 37.97 211.04 138.92 237.26 131.69 265.82 185.1 280.01 192.51 251.27 211.22 256.15 218.36 227.67 220.08 228.13 223.78 214.02 219.99 212.94 221.61 205.98 53.43 162.31"/><polyline class="cls-2" points="66.71 88.91 53.97 138.09 67.34 141.61 66.17 145.86 92.02 152.55 93.1 148.3 114.25 153.82 114.61 152.46 127.98 155.9 127.62 157.25 188 172.98 192.69 154.54 197.12 155.71 198.3 151.28 198.57 151.28 202.18 137.36 197.48 136.1 198.39 132.66 153.56 121 153.92 119.47 144.25 116.93 143.35 120.46 141.09 119.83 137.11 135.19 98.52 125.16 105.3 98.94 66.71 88.91"/><polygon class="cls-2" points="82.71 37.11 76.92 59.35 89.94 62.69 87.32 72.73 206.52 103.73 209.81 91 211.06 92.25 215.65 75.89 212.85 74.44 217.19 61.61 98.25 30.6 95.72 40.45 82.71 37.11"/><polygon class="cls-2" points="243.21 67.94 232.73 108.52 243.76 111.33 243.12 113.86 329.34 136.1 332.05 125.7 334.31 126.33 340.55 102.2 338.83 100.48 341.63 90.81 254.6 68.3 253.97 70.74 243.21 67.94"/><polyline class="cls-2" points="315.96 182.38 333.59 186.99 343.26 150.11 325.64 145.41 315.96 182.38"/><polyline class="cls-2" points="320.39 192.32 314.7 214.38 326.9 217.55 332.6 195.49 320.39 192.32"/><polyline class="cls-2" points="263.73 266.63 263.46 267.81 276.38 271.25 276.65 270.25 298.79 276.21 303.13 260.04 280.9 254.07 282.07 249.55 269.06 246.02 267.88 250.18 245.65 244.21 241.23 260.58 263.73 266.63"/><polyline class="cls-2" points="268.97 242.77 268.25 245.75 269.06 245.93 269.06 246.02 275.93 247.83 276.83 244.57 305.21 252.17 310.63 231.74 252.52 216.28 247.1 236.89 268.97 242.77"/><polyline class="cls-2" points="629.38 331.72 645.83 270.43 584.47 253.89 567.93 315.09 629.38 331.72"/><polyline class="cls-2" points="518.22 220.35 517.59 222.61 556.09 232.64 556.63 230.47 588.62 238.79 587 245.03 611.22 251.45 619.26 220.71 562.78 205.98 563.32 203.99 524.64 193.86 524.1 195.94 470.42 181.84 468.07 181.29 460.11 211.85 462.55 212.48 484.15 218.18 485.78 211.85 518.22 220.35"/><polyline class="cls-2" points="657.13 206.61 670.87 210.13 678.82 179.76 670.41 177.59 664.45 200.46 658.94 199.56 658.22 202.27 657.13 206.61"/><polyline class="cls-2" points="658.22 202.27 664.81 176.96 492.19 132.03 481.71 129.41 475.2 154.54 477.28 155.08 658.22 202.27"/><polyline class="cls-2" points="431.01 143.33 431.73 140.62 453.06 146.22 459.21 122.81 421.52 112.87 420.8 115.58 398.75 109.79 392.51 133.21 431.01 143.33"/><polyline class="cls-2" points="410.04 206.25 408.96 210.31 419.08 213.03 420.08 208.96 446.92 216.01 450.71 201.54 452.7 193.95 388.9 177.23 387.36 183.01 382.48 181.75 379.86 191.69 384.56 192.96 382.93 199.2 410.04 206.25"/><polyline class="cls-2" points="399.02 349.89 402.9 335.25 346.24 320.42 342.44 335.07 399.02 349.89"/><polygon class="cls-2" points="516.69 358.84 512.71 373.31 528.07 377.56 527.26 380.45 545.97 385.6 550.03 371.05 531.24 365.89 532.05 363.09 516.69 358.84"/><polygon class="cls-2" points="563.77 337.78 557.72 359.38 563.14 360.92 562.15 364.45 559.61 363.72 558.35 368.33 559.43 368.7 555.18 383.7 553.92 383.7 552.75 388.58 557.89 390.03 558.17 388.94 561.88 390.03 561.15 392.38 570.82 395.09 571.36 393.01 611.22 403.5 612.03 400.43 615.83 401.42 621.79 379.63 623.96 380.18 626.67 370.23 623.69 369.42 628.75 354.6 623.87 353.24 623.33 355.14 601.1 348.99 600.55 351.07 587.81 347.63 583.47 363.81 579.86 362.91 585.19 343.84 563.77 337.78"/><path class="cls-2" d="M2074.39,1360.59l-5-1.27,3.7-14.19-13.83-3.71,1.27-4.7L2005.07,1322l-1.72,6.6-8.31-2.16-5.33,20.24-14.64-3.88L1963,1388.16l14.74,3.89-5.34,20.25,8.32,2.26-1.63,6.32,55.4,14.74,1.27-4.8,13.73,3.71,3.71-13.83.54.18,4.52,1.18,6.41-24,1.63.45,3.62-13.47-1.81-.45Zm-28.56,7.05-3.71-1-8.94,33.63,3.61.91-2,7.59-38.23-10.22,3.44-13,8.22,2.17,5.79-21.79-8.77-2.35,3.61-13.56,38.87,10.31Z" transform="translate(-1603.7 -1099.92)"/></g><g id="建築"><polygon class="cls-3" points="81.01 33 75.23 55.24 88.25 58.58 85.63 68.62 204.83 99.63 208.11 86.89 209.37 88.14 213.96 71.78 211.15 70.33 215.49 57.5 96.56 26.49 94.03 36.34 81.01 33"/><polygon class="cls-3" points="241.52 63.83 231.04 104.41 242.06 107.22 241.43 109.75 327.65 131.99 330.36 121.59 332.62 122.22 338.85 98.09 337.14 96.37 339.94 86.7 252.91 64.19 252.27 66.63 241.52 63.83"/><polygon class="cls-4" points="51.73 158.21 49.84 165.53 45.86 164.35 40.89 183.7 42.16 183.97 36.28 206.93 137.23 233.15 130 261.71 183.41 275.9 190.82 247.16 209.53 252.04 216.67 223.56 218.38 224.02 222.09 209.91 218.29 208.83 219.92 201.87 51.73 158.21"/><polyline class="cls-4" points="65.02 84.8 52.28 133.98 65.65 137.5 64.48 141.75 90.32 148.44 91.41 144.19 112.56 149.71 112.92 148.35 126.29 151.79 125.93 153.14 186.3 168.87 191 150.43 195.43 151.6 196.6 147.17 196.88 147.17 200.49 133.25 195.79 131.99 196.69 128.55 151.87 116.89 152.23 115.36 142.56 112.82 141.66 116.35 139.4 115.72 135.42 131.08 96.83 121.05 103.61 94.83 65.02 84.8"/><polyline class="cls-4" points="314.27 178.27 331.89 182.88 341.56 146 323.94 141.3 314.27 178.27"/><polyline class="cls-4" points="318.7 188.21 313 210.27 325.21 213.44 330.9 191.38 318.7 188.21"/><polyline class="cls-4" points="262.03 262.52 261.76 263.7 274.69 267.14 274.96 266.14 297.1 272.11 301.44 255.93 279.21 249.96 280.38 245.44 267.37 241.91 266.19 246.07 243.96 240.1 239.53 256.47 262.03 262.52"/><polyline class="cls-4" points="267.27 238.66 266.55 241.64 267.37 241.82 267.37 241.91 274.24 243.72 275.14 240.47 303.52 248.06 308.94 227.63 250.83 212.17 245.41 232.78 267.27 238.66"/><polyline class="cls-4" points="655.44 202.5 669.17 206.02 677.13 175.65 668.72 173.48 662.76 196.35 657.25 195.45 656.52 198.16 655.44 202.5"/><polyline class="cls-4" points="429.32 139.22 430.04 136.51 451.37 142.11 457.51 118.7 419.83 108.76 419.11 111.47 397.05 105.68 390.82 129.09 429.32 139.22"/><polyline class="cls-4" points="408.35 202.14 407.27 206.21 417.39 208.92 418.38 204.85 445.22 211.9 449.02 197.44 451.01 189.84 387.2 173.12 385.67 178.9 380.79 177.64 378.17 187.58 382.87 188.85 381.24 195.09 408.35 202.14"/><polygon class="cls-4" points="515 354.73 511.02 369.19 526.38 373.45 525.57 376.34 544.27 381.49 548.34 366.94 529.54 361.79 530.36 358.98 515 354.73"/><polyline class="cls-4" points="627.69 327.61 644.14 266.32 582.77 249.78 566.24 310.98 627.69 327.61"/><polygon class="cls-4" points="562.08 333.67 556.02 355.27 561.45 356.81 560.45 360.34 557.92 359.61 556.65 364.23 557.74 364.59 553.49 379.59 552.23 379.59 551.05 384.47 556.2 385.92 556.47 384.84 560.18 385.92 559.46 388.27 569.13 390.98 569.67 388.9 609.53 399.39 610.34 396.32 614.14 397.31 620.1 375.52 622.27 376.07 624.98 366.12 622 365.31 627.06 350.49 622.18 349.13 621.64 351.03 599.4 344.88 598.86 346.96 586.12 343.52 581.78 359.7 578.17 358.8 583.5 339.73 562.08 333.67"/><polyline class="cls-5" points="516.53 216.24 515.9 218.5 554.39 228.53 554.94 226.36 586.93 234.68 585.3 240.92 609.53 247.34 617.57 216.6 561.09 201.87 561.63 199.88 522.95 189.75 522.4 191.83 468.72 177.73 466.37 177.19 458.42 207.74 460.86 208.37 482.46 214.07 484.09 207.74 516.53 216.24"/><polyline class="cls-5" points="656.52 198.16 663.12 172.85 490.5 127.92 480.02 125.3 473.51 150.43 475.59 150.97 656.52 198.16"/><polyline class="cls-6" points="397.32 345.78 401.21 331.14 344.55 316.31 340.75 330.96 397.32 345.78"/><path class="cls-6" d="M2072.7,1356.48l-5-1.27,3.7-14.19-13.83-3.71,1.27-4.7-55.49-14.73-1.72,6.59-8.32-2.16-5.33,20.24-14.64-3.88-12.11,45.38,14.73,3.89-5.33,20.25,8.32,2.26-1.63,6.32,55.4,14.74,1.26-4.8,13.74,3.71,3.7-13.83.55.18,4.52,1.18,6.41-24,1.63.45,3.62-13.47-1.81-.45Zm-28.56,7-3.71-1-9,33.63,3.62.91-2,7.59-38.23-10.22,3.44-13,8.22,2.17,5.78-21.79-8.76-2.35,3.61-13.56,38.86,10.31Z" transform="translate(-1603.7 -1099.92)"/></g></g><g id="建築_文字_中英文"><text class="cls-7" transform="translate(48.68 215.51)">公共衛生學院</text></g></svg>