<svg xmlns="http://www.w3.org/2000/svg" viewBox="0 0 671.34 848.94"><defs><style>.cls-1{fill:#e8f1cf;}.cls-2{fill:#bfc0c0;}.cls-3{fill:#e0e1e1;}.cls-3,.cls-4{stroke:#898989;stroke-width:0.57px;}.cls-4{fill:#f3d397;}.cls-5{font-size:20px;font-family:Arial-BoldMT, Arial;font-weight:700;letter-spacing:0.02em;}.cls-5,.cls-6,.cls-7,.cls-8{fill:#bc121a;}.cls-6{font-size:17px;font-family:ArialMT, Arial;letter-spacing:0.02em;}.cls-7{font-size:28px;}.cls-7,.cls-8{font-family:DFYuan-W5-WIN-BF, DFYuanMedium-B5;}.cls-8{font-size:26px;}</style></defs><title>B_03_A_臺大醫院西址</title><g id="底板_單色"><polygon class="cls-1" points="0 757.32 201.49 0 553.67 91.62 352.18 848.94 0 757.32"/></g><g id="建築_01_多色"><g id="建築陰影"><polyline class="cls-2" points="109.66 789.73 114.9 771.74 99.54 767.76 101.17 762.25 81.56 757.55 80.38 762.7 65.29 758.73 59.87 776.98 109.66 789.73"/><polyline class="cls-2" points="158.91 768.76 160.36 774.54 165.6 783.13 171.39 787.74 176.9 789.55 183.77 789.91 190.28 788.01 194.88 784.4 199.4 779.61 193.17 776.44 190.19 780.33 184.67 783.22 180.06 783.76 174.73 782.05 170.57 778.97 168.22 775.36 166.78 771.2 166.24 769.48 158.91 768.76"/><polygon class="cls-2" points="261.22 803.56 256.61 820.92 289.33 829.6 293.93 812.15 273.24 806.73 274.14 802.57 280.56 804.2 282.1 797.14 289.78 799.13 290.32 796.87 334.97 807.18 344.18 769.66 332.16 766.41 327.92 782.41 318.43 780.06 327.55 747.34 356.02 754.65 372.29 690.47 354.45 685.77 357.83 674.29 365.69 676.1 377.8 629.72 344.27 621.05 335.51 655.94 331.8 655.04 335.42 640.57 327.28 638.49 323.58 652.96 319.96 652.05 324.66 633.7 120.51 581.18 114.36 606.58 132.16 611.1 123.22 647.26 116.08 645.36 112.73 658.65 120.87 661 115.35 682.51 112.28 681.97 109.75 692.82 120.51 695.54 121.14 692.91 172.92 706.03 169.76 720.12 182.07 722.65 177.89 735.67 200.49 741.64 202.12 730.34 214.86 731.78 218.83 719.31 270.44 731.33 269.81 734.04 281.28 737.3 284.26 726.27 280.65 725.09 284.26 710.36 292.04 712.62 287.88 728.17 324.03 737.39 318.88 758.18 294.51 751.68 289.53 772.35 273.96 768.12 268.18 790 270.35 790.46 267.18 805.1 261.22 803.56"/><polygon class="cls-2" points="140.12 613.09 131.17 649.16 146.72 653.32 143.55 666.15 160.54 670.58 173.01 621.59 140.12 613.09"/><polygon class="cls-2" points="203.02 629.36 193.35 667.15 219.29 673.84 228.96 636.05 203.02 629.36"/><polygon class="cls-2" points="259.14 643.46 246.67 692.64 263.75 697.25 266.91 684.5 282.82 688.39 292.13 652.05 259.14 643.46"/><polygon class="cls-2" points="340.3 673.39 331.8 671.31 331.08 674.2 315.44 669.86 318.07 658.83 299.9 654.13 290.61 690.24 296.24 691.92 295.11 701.41 301.99 703.36 309.84 681.25 330.36 686.4 331.8 680.98 337.77 682.61 340.3 673.39"/><polygon class="cls-2" points="56.79 563.82 29.41 671.67 107.04 691.56 114.81 662.11 101.71 658.56 104.06 647.8 101.17 647.17 116.66 579.55 56.79 563.82"/><polygon class="cls-2" points="68.18 523.78 58.15 561.92 184.94 594.38 194.97 556.41 68.18 523.78"/><polygon class="cls-2" points="228.59 556.5 218.47 597.09 186.72 588.67 184.94 594.38 229.13 606.42 241.61 559.75 228.59 556.5"/><polygon class="cls-2" points="92.31 484.24 89.87 488.79 75.95 485.63 74.42 490.78 88.66 494.63 81.73 525.95 101.8 530.19 103.15 524.68 372.38 592.93 371.02 600.25 385.03 603.6 395.79 561.47 381.96 558.13 380.42 564.45 261.04 534.36 261.4 531.19 224.44 522.42 223.89 524.77 104.96 493.86 106.5 487.62 92.31 484.24"/><path class="cls-2" d="M676.11,1136.2l59.47,14.39,2.89-10.85,38.59,10-7,23.69s.81,5.7-.54,7c-4.51,4.51-4.88-1.45-4.88-1.45l-11-2.07-.45,1.62-19.43-5.06,1.63-6.15-4.07-1.27,1.26-4.51-59.9-15.45,3.08-11" transform="translate(-438.84 -557.39)"/><polyline class="cls-2" points="269.71 450.28 275.14 426.87 263.48 423.88 257.42 447.12 269.71 450.28"/><polyline class="cls-2" points="392.71 516.27 391.09 522.69 404.92 526.13 408.8 512.2 405.55 511.3 409.07 497.38 412.24 498.1 415.76 484.09 401.84 480.65 400.12 487.16 280.74 456.7 282 453.36 244.86 443.95 242.6 453.26 131.26 424.79 132.8 418.82 124.84 416.83 126.47 409.87 112.28 406.8 108.76 421.26 111.83 421.89 108.4 435.63 105.14 434.55 101.53 448.56 115.44 452.18 117.07 445.94 186.39 463.93 185.12 469.71 202.29 474.06 203.92 468.09 236.37 476.59 234.11 486.08 270.89 495.84 273.42 485.72 392.71 516.27"/><polyline class="cls-2" points="370.75 544.02 371.2 541.76 363.7 539.78 368.86 519.71 351.14 515.19 353.13 506.15 316.62 496.83 308.85 528.02 370.75 544.02"/><polyline class="cls-2" points="170.39 502.26 176.81 476.5 165.06 473.61 167.68 463.21 134.51 454.53 133.43 458.42 89.96 447.12 81.46 479.39 170.39 502.26"/><polyline class="cls-2" points="237.72 525.58 249.2 528.3 252 515.28 263.12 518.26 261.94 522.96 275.5 526.4 278.75 512.84 265.38 509.49 264.2 514.1 253 511.12 257.42 492.32 246.49 489.33 237.72 525.58"/><polygon class="cls-2" points="268.36 404.63 142.56 372.54 145 363.31 156.84 366.3 162.98 343.34 277.04 372.44 268.36 404.63"/><path class="cls-2" d="M575.61,872.7,557.18,944l301.58,77.38,18.07-71ZM707.2,962,581.4,929.92l2.44-9.22,11.84,3,6.14-23,114,29.1Z" transform="translate(-438.84 -557.39)"/><polygon class="cls-2" points="346.99 209.82 317.8 324.9 299.72 320.74 292.13 350.57 332.8 361.15 339.12 336.56 344.36 337.64 345 334.48 354.12 336.83 351.32 348.31 386.75 357.35 389.73 346.05 416.57 352.74 425.34 317.84 398.68 309.26 401.75 298.31 407.36 298.14 412.33 283.13 417.48 284.4 420.46 273.55 414.95 272.28 416.38 266.31 426.79 268.13 422 286.3 440.79 290.81 440.52 298.65 451.46 300.22 457.6 275.72 433.38 269.75 436.62 257.55 421.81 253.93 426.24 240.23 443.23 245.44 449.92 218.59 432.48 214.52 427.45 235.25 423.99 233.69 425.7 226.45 392.81 217.68 393.89 213.8 357.92 204.48 355.75 212.08 346.99 209.82"/><polyline class="cls-2" points="300.17 317.3 313.19 320.01 322.31 287.38 309.48 284.67 300.17 317.3"/><polyline class="cls-2" points="478.21 212.8 467.45 253.93 451.37 249.78 461.49 208.46 478.21 212.8"/><polyline class="cls-2" points="498.63 214.61 481.28 210.27 472.79 243.72 490.68 248.24 498.63 214.61"/><polygon class="cls-2" points="207.18 17.18 191.36 77.29 264.38 96.37 270.71 72.32 266.19 71.14 269.26 58.58 273.96 59.84 280.2 36.07 207.18 17.18"/><polygon class="cls-2" points="174.46 107.67 170.12 124.03 199.04 131.89 195.7 143.83 232.84 153.23 235.91 140.66 245.77 142.2 247.3 134.24 267.09 137.59 271.88 121.77 206.45 104.23 201.93 113.18 196.6 113.54 174.46 107.67"/><polygon class="cls-2" points="298.63 236.94 265.11 228.17 263.03 235.76 258.78 234.95 251.73 262.43 256.16 263.69 254.31 270.59 260.86 273.19 259.59 278.16 264.29 279.33 262.31 287.65 149.88 258.63 149.06 261.89 145.99 260.89 146.99 257.01 149.5 254.5 156.38 227.99 143.64 224.73 124.57 298.41 136.14 301.03 137.13 297.14 249.29 325.8 253.45 311.52 267.09 314.59 267.45 312.42 275.05 314.59 283.63 279.06 288.72 279.97 291.16 271.56 303.96 274.18 308.4 258.45 294.54 255.11 298.63 236.94"/><polygon class="cls-2" points="281.99 352.8 330.36 176.73 234.48 150.97 235.05 144.2 328.37 169.59 355.95 65.27 364.51 67.53 361.36 81.09 337.68 172.21 336.86 177.46 450.46 209.82 448.93 215.42 374.55 194.18 371.12 207.9 364.8 206.26 368.13 192.37 335.33 183.06 314.99 259.99 333.16 264.33 331.25 271.83 314.36 267.58 289.62 354.76 281.99 352.8"/><polygon class="cls-2" points="399.85 69.52 390.18 107.58 381.24 105.14 368.22 156.03 418.11 168.87 416.39 175.2 464.92 187.33 476.13 149.79 485.44 152.23 498.45 101.43 448.84 88.5 450.19 82.63 399.85 69.52"/><path class="cls-2" d="M930.71,688s-1.11-2.07,4-1.07S939,698.32,940,703.38s2.27,13.29-3.16,22.06-7.86,23.14-7.32,27.93,1.86,10.49-3.07,10.58-6.55-6.12-12.09-5.77-16.84-2.28-19.63-5.08l-2.8-2.8s-14.73,7.32-15.37-.09,3.8-9.49,3.8-9.49l23.4,2.7L915,707.18l9.31,2.44L930,687.29" transform="translate(-438.84 -557.39)"/><polyline class="cls-2" points="641.07 397.94 663.29 403.63 662.39 407.34 671.34 409.51 666.1 430.03 656.97 427.95 651.1 450.28 628.68 444.68 634.74 421.81 625.61 419.91 630.76 399.21 640.07 401.64 641.07 397.94"/><polyline class="cls-2" points="555.39 477.85 552.95 477.31 549.33 476.04 547.53 475.32 545.81 474.24 544 472.97 543.82 474.96 543.91 476.59 543.82 478.75 533.7 517.9 532.88 520.7 532.16 522.15 530.45 525.13 532.71 525.22 534.51 524.95 537.13 525.13 542.83 526.4 555.39 477.85"/><polyline class="cls-2" points="564.43 433.65 567.5 435.91 569.4 436.99 571.75 437.98 597.14 444.86 599.67 445.4 602.38 445.85 605.73 445.76 608.98 445.31 605.46 450.37 603.74 454.98 601.03 464.83 573.73 571.6 573.28 574.13 573.28 576.84 573.55 581.09 570.57 578.74 568.49 577.57 566.05 576.48 540.12 569.61 538.04 569.25 536.23 569.07 534.15 568.98 529.18 569.34 532.25 564.73 533.25 562.38 533.97 560.21 534.69 557.67 542.83 526.4 555.39 477.85 564.06 444.58 564.52 441.87 564.79 439.52 564.79 437.62 564.43 433.65"/></g><g id="建築"><polyline class="cls-3" points="107.97 785.62 113.21 767.63 97.85 763.65 99.47 758.14 79.86 753.44 78.69 758.59 63.59 754.62 58.17 772.87 107.97 785.62"/><polygon class="cls-3" points="226.9 552.39 216.78 592.98 185.03 584.56 183.25 590.27 227.44 602.31 239.92 555.64 226.9 552.39"/><polyline class="cls-3" points="268.02 446.17 273.44 422.76 261.79 419.77 255.73 443 268.02 446.17"/><polyline class="cls-3" points="236.03 521.48 247.51 524.19 250.31 511.17 261.43 514.15 260.25 518.85 273.81 522.29 277.06 508.73 263.68 505.38 262.51 509.99 251.3 507.01 255.73 488.21 244.8 485.22 236.03 521.48"/><polyline class="cls-3" points="298.48 313.19 311.49 315.91 320.62 283.27 307.79 280.56 298.48 313.19"/><polygon class="cls-3" points="205.48 13.07 189.67 73.18 262.69 92.26 269.02 68.21 264.5 67.04 267.57 54.47 272.27 55.74 278.5 31.96 205.48 13.07"/><polygon class="cls-3" points="172.77 103.56 168.43 119.92 197.35 127.78 194 139.72 231.15 149.12 234.22 136.55 244.07 138.09 245.61 130.13 265.4 133.48 270.19 117.66 204.76 100.12 200.24 109.07 194.91 109.43 172.77 103.56"/><polygon class="cls-3" points="280.3 348.69 328.66 172.62 232.79 146.86 233.36 140.09 326.67 165.48 354.26 61.16 362.81 63.42 359.66 76.98 335.98 168.1 335.17 173.35 448.77 205.71 447.23 211.31 372.86 190.07 369.43 203.79 363.1 202.15 366.44 188.26 333.63 178.95 313.3 255.88 331.46 260.22 329.56 267.72 312.67 263.47 287.92 350.65 280.3 348.69"/><polyline class="cls-3" points="639.37 393.83 661.6 399.52 660.7 403.23 669.65 405.4 664.4 425.92 655.28 423.85 649.4 446.17 626.99 440.57 633.04 417.69 623.92 415.8 629.07 395.1 638.38 397.54 639.37 393.83"/><polyline class="cls-3" points="553.7 473.74 551.26 473.2 547.64 471.94 545.83 471.21 544.12 470.13 542.31 468.86 542.13 470.85 542.22 472.48 542.13 474.64 532.01 513.79 531.19 516.59 530.47 518.04 528.75 521.02 531.01 521.11 532.82 520.84 535.44 521.02 541.13 522.29 553.7 473.74"/><polyline class="cls-3" points="562.73 429.54 565.8 431.8 567.7 432.88 570.05 433.87 595.45 440.75 597.98 441.29 600.69 441.74 604.03 441.65 607.29 441.2 603.76 446.26 602.05 450.87 599.34 460.73 572.04 567.49 571.59 570.02 571.59 572.73 571.86 576.98 568.88 574.63 566.8 573.46 564.36 572.37 538.42 565.5 536.34 565.14 534.54 564.96 532.46 564.87 527.49 565.23 530.56 560.62 531.55 558.27 532.28 556.1 533 553.57 541.13 522.29 553.7 473.74 562.37 440.48 562.82 437.76 563.1 435.42 563.1 433.51 562.73 429.54"/><polygon class="cls-4" points="259.53 799.45 254.92 816.81 287.63 825.49 292.24 808.04 271.55 802.62 272.45 798.46 278.87 800.09 280.4 793.03 288.08 795.02 288.63 792.76 333.27 803.07 342.49 765.55 330.47 762.3 326.22 778.3 316.73 775.95 325.86 743.23 354.33 750.54 370.6 686.36 352.75 681.66 356.14 670.18 364 671.99 376.11 625.61 342.58 616.94 333.81 651.83 330.11 650.93 333.73 636.46 325.59 634.38 321.88 648.85 318.27 647.94 322.97 629.59 118.81 577.07 112.67 602.47 130.47 606.99 121.53 643.15 114.38 641.25 111.04 654.54 119.17 656.89 113.66 678.41 110.59 677.86 108.06 688.71 118.81 691.43 119.45 688.8 171.22 701.92 168.07 716.01 180.38 718.54 176.2 731.56 198.79 737.53 200.42 726.23 213.16 727.67 217.14 715.2 268.75 727.22 268.11 729.93 279.59 733.19 282.57 722.16 278.96 720.98 282.57 706.25 290.35 708.51 286.19 724.06 322.34 733.28 317.19 754.07 292.82 747.57 287.83 768.24 272.27 764.01 266.49 785.89 268.65 786.35 265.49 800.99 259.53 799.45"/><polygon class="cls-4" points="138.42 608.98 129.48 645.05 145.02 649.21 141.86 662.04 158.85 666.47 171.32 617.48 138.42 608.98"/><polygon class="cls-4" points="201.32 625.25 191.66 663.04 217.59 669.73 227.26 631.94 201.32 625.25"/><polygon class="cls-4" points="257.45 639.36 244.98 688.53 262.06 693.14 265.22 680.39 281.13 684.28 290.44 647.94 257.45 639.36"/><polygon class="cls-4" points="338.61 669.28 330.11 667.2 329.38 670.09 313.75 665.75 316.37 654.72 298.21 650.02 288.91 686.13 294.54 687.81 293.42 697.3 300.3 699.25 308.15 677.14 328.66 682.29 330.11 676.87 336.07 678.5 338.61 669.28"/><polygon class="cls-4" points="55.1 559.71 27.72 667.56 105.35 687.45 113.12 658 100.02 654.45 102.36 643.69 99.47 643.06 114.96 575.44 55.1 559.71"/><polygon class="cls-4" points="66.48 519.67 56.45 557.81 183.25 590.27 193.28 552.3 66.48 519.67"/><polygon class="cls-4" points="90.62 480.13 88.17 484.68 74.26 481.52 72.72 486.67 86.97 490.52 80.04 521.84 100.11 526.08 101.46 520.57 370.69 588.82 369.33 596.14 383.34 599.49 394.09 557.36 380.27 554.02 378.73 560.34 259.35 530.25 259.71 527.08 222.74 518.31 222.2 520.66 103.27 489.75 104.81 483.51 90.62 480.13"/><path class="cls-4" d="M674.42,1132.09l59.46,14.39,2.9-10.85,38.59,10-7,23.69s.81,5.7-.55,7.05c-4.51,4.51-4.88-1.45-4.88-1.45l-11-2.07-.45,1.62-19.43-5.06,1.62-6.15-4.06-1.26,1.26-4.52L671,1142.06l3.08-11" transform="translate(-438.84 -557.39)"/><polyline class="cls-4" points="391.02 512.16 389.39 518.58 403.22 522.02 407.11 508.09 403.86 507.19 407.38 493.27 410.54 493.99 414.07 479.98 400.15 476.54 398.43 483.05 279.05 452.59 280.31 449.25 243.17 439.84 240.91 449.15 129.57 420.68 131.1 414.71 123.15 412.72 124.78 405.76 110.59 402.69 107.06 417.15 110.14 417.79 106.7 431.52 103.45 430.44 99.83 444.45 113.75 448.07 115.38 441.83 184.7 459.82 183.43 465.61 200.6 469.95 202.23 463.98 234.67 472.48 232.41 481.97 269.2 491.73 271.73 481.61 391.02 512.16"/><polyline class="cls-4" points="369.06 539.91 369.51 537.65 362.01 535.67 367.16 515.6 349.45 511.08 351.44 502.04 314.93 492.73 307.15 523.91 369.06 539.91"/><polyline class="cls-4" points="168.7 498.15 175.12 472.39 163.37 469.5 165.99 459.1 132.82 450.42 131.74 454.31 88.27 443 79.77 475.28 168.7 498.15"/><polygon class="cls-4" points="266.67 400.52 140.86 368.43 143.31 359.2 155.14 362.19 161.29 339.23 275.34 368.34 266.67 400.52"/><path class="cls-4" d="M573.92,868.59l-18.44,71.33,301.58,77.38,18.08-71ZM705.51,957.9,579.7,925.81l2.44-9.22,11.84,3,6.15-23,114,29.1Z" transform="translate(-438.84 -557.39)"/><polygon class="cls-4" points="345.29 205.71 316.1 320.79 298.03 316.63 290.44 346.46 331.1 357.04 337.43 332.45 342.67 333.53 343.3 330.37 352.43 332.72 349.63 344.2 385.06 353.24 388.04 341.94 414.88 348.63 423.65 313.73 396.99 305.15 400.06 294.2 405.66 294.03 410.63 279.02 415.79 280.29 418.77 269.44 413.25 268.17 414.69 262.2 425.09 264.02 420.3 282.19 439.1 286.71 438.83 294.54 449.77 296.11 455.91 271.61 431.69 265.64 434.93 253.44 420.12 249.82 424.54 236.12 441.54 241.33 448.23 214.48 430.79 210.41 425.75 231.14 422.3 229.59 424.01 222.34 391.11 213.57 392.2 209.69 356.23 200.37 354.06 207.97 345.29 205.71"/><polyline class="cls-4" points="476.52 208.69 465.76 249.82 449.68 245.67 459.8 204.35 476.52 208.69"/><polyline class="cls-4" points="496.94 210.5 479.59 206.16 471.09 239.61 488.99 244.13 496.94 210.5"/><polygon class="cls-4" points="296.94 232.83 263.41 224.06 261.33 231.65 257.09 230.84 250.04 258.32 254.47 259.59 252.62 266.49 259.17 269.08 257.9 274.05 262.6 275.23 260.61 283.54 148.19 254.53 147.37 257.78 144.3 256.79 145.29 252.9 147.8 250.39 154.69 223.88 141.95 220.63 122.88 294.3 134.45 296.92 135.44 293.03 247.6 321.69 251.75 307.41 265.4 310.48 265.76 308.31 273.35 310.48 281.94 274.95 287.03 275.86 289.47 267.45 302.27 270.07 306.7 254.34 292.84 251 296.94 232.83"/><polygon class="cls-4" points="398.16 65.41 388.49 103.47 379.55 101.03 366.53 151.92 416.42 164.76 414.7 171.09 463.22 183.22 474.44 145.68 483.75 148.12 496.76 97.32 447.14 84.39 448.5 78.52 398.16 65.41"/><path class="cls-4" d="M929,683.89s-1.11-2.07,4.05-1.07,4.25,11.39,5.24,16.45,2.26,13.29-3.16,22.06-7.86,23.14-7.32,27.93,1.86,10.49-3.08,10.58-6.54-6.12-12.08-5.77S895.83,751.79,893,749l-2.79-2.8s-14.74,7.32-15.37-.09,3.79-9.49,3.79-9.49l23.4,2.7,11.22-36.24,9.31,2.44,5.72-22.33" transform="translate(-438.84 -557.39)"/></g></g><g id="圖內文字_中英文版"><g id="文字_重點區塊_中英文"><text class="cls-5" transform="translate(131.81 579.47)">NTU Hospital</text><text class="cls-6" transform="translate(156.55 606.15)">West Site <tspan x="-26.89" y="20.4">Original Building </tspan></text><text class="cls-7" transform="translate(112.98 548.7)">臺大醫院西址</text><text class="cls-6" transform="translate(349.39 105.16)">NTUH Children and <tspan x="12.79" y="20.4">Women Building </tspan></text><text class="cls-8" transform="translate(324.73 74.38)">臺大醫院兒醫大樓</text></g></g></svg>