<svg xmlns="http://www.w3.org/2000/svg" viewBox="0 0 789.88 602.48"><defs><style>.cls-1{fill:#e8f1cf;}.cls-2{fill:#bfc0c0;}.cls-3{fill:#fbdad1;}.cls-3,.cls-4,.cls-5{stroke:#898989;stroke-width:0.57px;}.cls-4{fill:#e0e1e1;}.cls-5{fill:#f3d397;}.cls-6{font-size:21px;fill:#005e5b;}.cls-6,.cls-9{font-family:DFYuan-W5-WIN-BF, DFYuanMedium-B5;}.cls-7{font-size:20px;font-family:Arial-BoldMT, Arial;font-weight:700;letter-spacing:0.02em;}.cls-7,.cls-8,.cls-9{fill:#bc121a;}.cls-8{font-size:17px;font-family:ArialMT, Arial;letter-spacing:0.02em;}.cls-9{font-size:28px;}</style></defs><title>B_03_A_台大醫院東址</title><g id="底板_單色"><path class="cls-1" d="M1453.93,1806l-667.65-97.16a93.24,93.24,0,0,0-7.95-6.89L911,1203.56l657.27,172.92Z" transform="translate(-778.33 -1203.56)"/></g><g id="建築_01_多色"><g id="建築陰影"><polyline class="cls-2" points="582.27 279.6 692.17 308.63 710.69 238.11 600.89 209.09 582.27 279.6"/><polyline class="cls-2" points="549.56 275.36 550.46 272.01 561.31 274.91 562.66 269.39 568.72 271.02 581.73 219.49 575.86 217.95 578.84 206.29 489.91 182.7 488.92 187.13 486.12 186.5 489.1 174.83 480.96 172.57 477.98 184.23 477.35 184.14 460.18 248.6 460.9 248.87 457.83 260.08 466.41 262.43 469.21 250.59 471.92 251.31 471.2 254.93 549.56 275.36"/><polygon class="cls-2" points="575.32 135.78 533.2 125.11 533.56 123.4 523.17 120.77 522.8 122.58 479.97 112.01 479.97 112.19 474.73 133.16 516.24 143.67 514.22 151.86 526.53 154.86 528.39 146.74 570.07 157.3 575.32 135.78"/><polygon class="cls-2" points="611.64 148.07 603.87 177 628 184.23 630.72 175.1 651.32 180.53 648.43 189.93 679.25 197.98 681.78 188.48 716.75 197.71 714.49 206.29 738.8 212.71 746.48 183.6 745.31 181.25 614.99 146.72 611.64 148.07"/><polyline class="cls-2" points="644.36 494.76 684.58 505.61 690.81 482.37 650.6 471.52 644.36 494.76"/><polygon class="cls-2" points="541.7 435.63 515.12 536.76 573.6 553.15 585.17 509.31 593.93 504.61 607.58 452.9 541.7 435.63"/><polyline class="cls-2" points="445.45 457.15 453.85 424.43 381.73 405.89 373.33 438.62 445.45 457.15"/><polyline class="cls-2" points="493.44 447.3 493.35 445.58 493.07 443.86 492.71 442.15 492.17 440.43 491.45 438.8 490.54 437.35 489.55 435.82 488.47 434.55 487.2 433.29 485.85 432.11 484.4 431.12 482.86 430.3 481.24 429.58 479.61 429.04 477.89 428.58 476.17 428.4 474.45 428.31 472.65 428.4 470.93 428.58 469.21 429.04 467.59 429.58 465.96 430.3 464.42 431.12 462.98 432.11 461.62 433.29 460.36 434.55 459.27 435.82 458.28 437.35 457.38 438.8 456.65 440.43 456.11 442.15 455.75 443.86 455.48 445.58 455.39 447.3 455.48 449.1 455.75 450.82 456.11 452.54 456.65 454.17 457.38 455.8 458.28 457.33 459.27 458.78 460.36 460.13 461.62 461.4 462.98 462.48 464.42 463.48 465.96 464.38 467.59 465.02 469.21 465.65 470.93 466.01 472.65 466.28 474.45 466.37 476.17 466.28 477.89 466.01 479.61 465.65 481.24 465.02 482.86 464.38 484.4 463.48 485.85 462.48 487.2 461.4 488.47 460.13 489.55 458.78 490.54 457.33 491.45 455.8 492.17 454.17 492.71 452.54 493.07 450.82 493.35 449.1 493.44 447.3"/><polyline class="cls-2" points="146.94 445.13 152 425.51 134.28 420.9 129.13 440.51 146.94 445.13"/><polygon class="cls-2" points="89.37 401.19 86.48 411.95 88.74 412.58 77.26 455.88 75.63 455.43 69.85 477.04 85.3 481.2 85.66 479.57 90.09 480.74 90.46 479.21 99.31 481.56 101.48 473.42 158.32 488.16 157.6 495.39 165.1 496.48 164.65 498.28 183.81 501.63 184.26 499.55 191.67 501.54 193.84 494.76 212.91 497.38 216.98 472.52 204.42 470.26 207.49 452.18 160.31 443.86 156.79 461.67 105.91 448.11 113.59 419.09 119.92 420.81 123.89 405.71 117.66 404.08 118.47 401.19 89.37 401.19"/><polygon class="cls-2" points="256.56 420.9 359.5 448.56 354.71 467.46 427.01 486.71 417.43 522.6 318.74 497.02 313.5 516.82 310.43 516 309.61 519.35 250.6 503.98 251.5 500.54 248.43 499.73 253.76 479.48 242.01 476.32 256.56 420.9"/><polygon class="cls-2" points="372.33 400.2 359.5 448.56 343.77 442.83 353.9 402.82 283.31 384.02 273.36 424.2 256.56 420.9 264.97 391.34 152.36 362.68 156.79 344.96 160.04 345.87 179.38 271.47 176.31 270.56 180.29 255.05 170.53 252.76 167.46 264.15 111.24 249.32 114.04 238.56 120.55 240.37 122.99 231.24 116.48 229.44 117.48 225.73 103.74 222.02 107.35 209.19 120.73 212.53 121.72 208.64 128.68 210.18 130.85 201.41 124.34 199.69 127.42 189.03 161.49 197.71 158.57 209.79 160.68 211.9 165.28 194.18 168.45 195.08 187.61 120.77 184.53 119.96 189.14 102.24 344.32 142.56 345.04 139.67 341.88 138.85 347.66 116.53 399 129.9 393.21 152.05 390.23 151.24 389.42 154.31 461.89 173.84 439.12 261.62 443.91 262.88 406.31 409.06 372.33 400.2"/><polygon class="cls-2" points="276.71 64.55 267.23 101.16 329.49 116.89 338.81 80.73 276.71 64.55"/></g><g id="建築"><polygon class="cls-3" points="609.95 143.97 602.18 172.9 626.31 180.12 629.02 170.99 649.63 176.42 646.73 185.82 677.55 193.87 680.08 184.37 715.06 193.6 712.8 202.18 737.11 208.6 744.79 179.49 743.62 177.14 613.29 142.61 609.95 143.97"/><polyline class="cls-4" points="547.87 271.25 548.77 267.9 559.61 270.8 560.97 265.28 567.02 266.91 580.04 215.38 574.16 213.84 577.15 202.18 488.22 178.59 487.23 183.02 484.42 182.39 487.4 170.72 479.27 168.46 476.29 180.12 475.65 180.03 458.48 244.49 459.21 244.76 456.13 255.97 464.72 258.32 467.52 246.48 470.23 247.2 469.51 250.82 547.87 271.25"/><polygon class="cls-4" points="573.62 131.67 531.51 121 531.87 119.29 521.47 116.66 521.11 118.47 478.28 107.9 478.28 108.08 473.03 129.05 514.55 139.56 512.52 147.75 524.84 150.75 526.69 142.63 568.38 153.19 573.62 131.67"/><polyline class="cls-4" points="642.67 490.65 682.88 501.5 689.12 478.26 648.9 467.41 642.67 490.65"/><polygon class="cls-4" points="540 431.52 513.42 532.65 571.9 549.04 583.47 505.2 592.24 500.5 605.88 448.79 540 431.52"/><polyline class="cls-4" points="443.75 453.04 452.16 420.32 380.04 401.78 371.63 434.51 443.75 453.04"/><polyline class="cls-4" points="491.74 443.19 491.65 441.47 491.38 439.75 491.02 438.04 490.48 436.32 489.75 434.69 488.85 433.24 487.86 431.71 486.77 430.44 485.51 429.18 484.15 428 482.71 427.01 481.17 426.19 479.54 425.47 477.91 424.93 476.2 424.47 474.48 424.29 472.76 424.2 470.95 424.29 469.24 424.47 467.52 424.93 465.89 425.47 464.27 426.19 462.73 427.01 461.29 428 459.93 429.18 458.67 430.44 457.58 431.71 456.59 433.24 455.68 434.69 454.96 436.32 454.42 438.04 454.06 439.75 453.79 441.47 453.69 443.19 453.79 444.99 454.06 446.71 454.42 448.43 454.96 450.06 455.68 451.69 456.59 453.22 457.58 454.67 458.67 456.02 459.93 457.29 461.29 458.37 462.73 459.37 464.27 460.27 465.89 460.91 467.52 461.54 469.24 461.9 470.95 462.17 472.76 462.26 474.48 462.17 476.2 461.9 477.91 461.54 479.54 460.91 481.17 460.27 482.71 459.37 484.15 458.37 485.51 457.29 486.77 456.02 487.86 454.67 488.85 453.22 489.75 451.69 490.48 450.06 491.02 448.43 491.38 446.71 491.65 444.99 491.74 443.19"/><polyline class="cls-4" points="145.25 441.02 150.31 421.4 132.59 416.79 127.44 436.4 145.25 441.02"/><polygon class="cls-4" points="87.68 397.08 84.78 407.84 87.04 408.48 75.57 451.77 73.94 451.32 68.16 472.93 83.61 477.09 83.97 475.46 88.4 476.63 88.76 475.1 97.62 477.45 99.79 469.31 156.63 484.05 155.91 491.28 163.41 492.37 162.96 494.17 182.12 497.52 182.57 495.44 189.98 497.43 192.15 490.65 211.22 493.27 215.29 468.41 202.72 466.15 205.8 448.07 158.62 439.75 155.09 457.56 104.22 444 111.9 414.98 118.22 416.7 122.2 401.6 115.97 399.98 116.78 397.08 87.68 397.08"/><polygon class="cls-4" points="254.87 416.79 357.81 444.45 353.02 463.35 425.31 482.6 415.74 518.49 317.05 492.91 311.81 512.71 308.73 511.89 307.92 515.24 248.91 499.87 249.81 496.43 246.74 495.62 252.07 475.37 240.32 472.21 254.87 416.79"/><polygon class="cls-4" points="275.02 60.44 265.53 97.05 327.8 112.78 337.11 76.62 275.02 60.44"/><polygon class="cls-5" points="370.64 396.09 357.81 444.45 342.07 438.72 352.2 398.71 281.62 379.91 271.67 420.09 254.87 416.79 263.27 387.23 150.67 358.57 155.09 340.85 158.35 341.76 177.69 267.36 174.62 266.45 178.59 250.94 168.83 248.65 165.76 260.04 109.55 245.21 112.35 234.45 118.86 236.26 121.3 227.13 114.79 225.33 115.78 221.62 102.05 217.91 105.66 205.08 119.04 208.42 120.03 204.53 126.99 206.07 129.16 197.3 122.65 195.59 125.72 184.92 159.8 193.6 156.88 205.68 158.98 207.79 163.59 190.07 166.75 190.97 185.91 116.66 182.84 115.85 187.45 98.13 342.63 138.45 343.35 135.56 340.19 134.74 345.97 112.42 397.3 125.79 391.52 147.94 388.54 147.13 387.72 150.2 460.2 169.73 437.43 257.51 442.22 258.77 404.62 404.95 370.64 396.09"/><polyline class="cls-5" points="580.58 275.5 690.48 304.51 709 234 599.2 204.99 580.58 275.5"/></g></g><g id="建築_文字_中英文"><text class="cls-6" transform="translate(466.16 231.6)">會議中心暨<tspan x="-10.5" y="25.2">醫學研究大樓</tspan></text></g><g id="圖內文字_中英文版"><g id="文字_重點區塊_中英文"><text class="cls-7" transform="translate(237.35 287.62)">NTU Hospital</text><text class="cls-8" transform="translate(264.45 314.3)">East Site <tspan x="-17.69" y="20.4">Main Building </tspan></text><text class="cls-9" transform="translate(218.53 256.85)">臺大醫院東址</text></g></g></svg>