<svg xmlns="http://www.w3.org/2000/svg" viewBox="0 0 3227.36 2357.53"><defs><style>.cls-1{fill:#e8f1cf;}.cls-2{fill:#bfc0c0;}.cls-3{fill:#fbdad1;}.cls-3,.cls-4,.cls-5,.cls-6{stroke:#898989;stroke-width:0.57px;}.cls-4{fill:#e0e1e1;}.cls-5{fill:#aed0ee;}.cls-6{fill:#f3d397;}.cls-7{font-size:21px;fill:#005e5b;}.cls-10,.cls-11,.cls-14,.cls-15,.cls-7,.cls-8,.cls-9{font-family:DFYuan-W5-WIN-BF, DFYuan W5-WIN-BF;}.cls-8{font-size:23px;letter-spacing:0.1em;}.cls-8,.cls-9{fill:#727171;}.cls-9{font-size:16px;}.cls-10{font-size:30.67px;letter-spacing:0.1em;}.cls-10,.cls-11{fill:#231815;}.cls-11{font-size:21.47px;}.cls-12{font-size:20px;font-family:Arial-BoldMT, Arial;font-weight:700;letter-spacing:0.02em;}.cls-12,.cls-13,.cls-14,.cls-15{fill:#bc121a;}.cls-13{font-size:17px;font-family:ArialMT, Arial;letter-spacing:0.02em;}.cls-14{font-size:28px;}.cls-15{font-size:26px;}</style></defs><title>工作區域 7</title><g id="底板_單色"><polygon class="cls-1" points="438.84 1314.7 640.33 557.39 992.51 649.01 791.02 1406.32 438.84 1314.7"/><path class="cls-1" d="M1453.93,1806l-667.65-97.16a93.24,93.24,0,0,0-7.95-6.89L911,1203.56l657.27,172.92Z"/><polygon class="cls-1" points="1913.42 1437.33 1603.7 1355.85 1671.79 1099.92 1981.37 1181.36 1913.42 1437.33"/><polygon class="cls-1" points="2241.51 1523.65 1935.84 1443.23 2003.79 1187.26 2309.72 1267.75 2241.51 1523.65"/><polygon class="cls-1" points="2210.33 1641.62 2104.15 1613.69 2127.76 1524.77 2234.03 1552.73 2210.33 1641.62"/></g><g id="建築_01_多色"><g id="建築陰影"><polyline class="cls-2" points="1360.61 1483.17 1470.5 1512.19 1489.03 1441.67 1379.22 1412.66 1360.61 1483.17"/><polyline class="cls-2" points="1327.89 1478.92 1328.8 1475.58 1339.64 1478.47 1341 1472.95 1347.05 1474.58 1360.07 1423.05 1354.19 1421.51 1357.17 1409.85 1268.25 1386.26 1267.25 1390.69 1264.45 1390.06 1267.43 1378.39 1259.3 1376.13 1256.31 1387.8 1255.68 1387.7 1238.51 1452.16 1239.23 1452.43 1236.16 1463.64 1244.75 1465.99 1247.55 1454.15 1250.26 1454.87 1249.54 1458.49 1327.89 1478.92"/><polygon class="cls-2" points="1353.65 1339.34 1311.54 1328.67 1311.9 1326.96 1301.5 1324.34 1301.14 1326.15 1258.31 1315.57 1258.31 1315.75 1253.06 1336.72 1294.58 1347.23 1292.55 1355.42 1304.87 1358.42 1306.72 1350.31 1348.41 1360.86 1353.65 1339.34"/><polygon class="cls-2" points="1389.98 1351.64 1382.21 1380.57 1406.34 1387.8 1409.05 1378.66 1429.65 1384.09 1426.76 1393.49 1457.58 1401.54 1460.11 1392.05 1495.08 1401.27 1492.82 1409.85 1517.14 1416.27 1524.82 1387.16 1523.64 1384.81 1393.32 1350.28 1389.98 1351.64"/><polyline class="cls-2" points="1422.69 1698.32 1462.91 1709.17 1469.15 1685.93 1428.93 1675.09 1422.69 1698.32"/><polygon class="cls-2" points="1320.03 1639.2 1293.45 1740.32 1351.93 1756.72 1363.5 1712.87 1372.27 1708.17 1385.91 1656.46 1320.03 1639.2"/><polyline class="cls-2" points="1223.78 1660.71 1232.19 1627.99 1160.07 1609.46 1151.66 1642.18 1223.78 1660.71"/><polyline class="cls-2" points="1271.77 1650.86 1271.68 1649.14 1271.41 1647.42 1271.05 1645.71 1270.51 1643.99 1269.78 1642.36 1268.88 1640.91 1267.88 1639.38 1266.8 1638.11 1265.54 1636.85 1264.18 1635.67 1262.73 1634.68 1261.2 1633.86 1259.57 1633.14 1257.94 1632.6 1256.22 1632.14 1254.51 1631.96 1252.79 1631.87 1250.98 1631.96 1249.27 1632.14 1247.55 1632.6 1245.92 1633.14 1244.29 1633.86 1242.76 1634.68 1241.31 1635.67 1239.96 1636.85 1238.69 1638.11 1237.61 1639.38 1236.61 1640.91 1235.71 1642.36 1234.99 1643.99 1234.44 1645.71 1234.08 1647.42 1233.81 1649.14 1233.72 1650.86 1233.81 1652.66 1234.08 1654.38 1234.44 1656.1 1234.99 1657.73 1235.71 1659.36 1236.61 1660.89 1237.61 1662.34 1238.69 1663.69 1239.96 1664.96 1241.31 1666.04 1242.76 1667.04 1244.29 1667.94 1245.92 1668.58 1247.55 1669.21 1249.27 1669.57 1250.98 1669.84 1252.79 1669.93 1254.51 1669.84 1256.22 1669.57 1257.94 1669.21 1259.57 1668.58 1261.2 1667.94 1262.73 1667.04 1264.18 1666.04 1265.54 1664.96 1266.8 1663.69 1267.88 1662.34 1268.88 1660.89 1269.78 1659.36 1270.51 1657.73 1271.05 1656.1 1271.41 1654.38 1271.68 1652.66 1271.77 1650.86"/><polyline class="cls-2" points="925.27 1648.69 930.33 1629.07 912.62 1624.46 907.47 1644.08 925.27 1648.69"/><polygon class="cls-2" points="867.71 1604.76 864.81 1615.51 867.07 1616.15 855.59 1659.45 853.97 1658.99 848.18 1680.6 863.64 1684.76 864 1683.13 868.43 1684.31 868.79 1682.77 877.64 1685.12 879.81 1676.99 936.66 1691.72 935.94 1698.95 943.44 1700.04 942.99 1701.85 962.14 1705.19 962.6 1703.11 970.01 1705.1 972.18 1698.32 991.25 1700.94 995.31 1676.08 982.75 1673.82 985.82 1655.74 938.65 1647.42 935.12 1665.23 884.24 1651.67 891.92 1622.65 898.25 1624.37 902.23 1609.27 895.99 1607.65 896.8 1604.76 867.71 1604.76"/><polygon class="cls-2" points="1034.9 1624.46 1137.83 1652.12 1133.05 1671.02 1205.34 1690.27 1195.76 1726.16 1097.07 1700.58 1091.83 1720.38 1088.76 1719.57 1087.95 1722.91 1028.93 1707.54 1029.84 1704.1 1026.77 1703.29 1032.1 1683.04 1020.35 1679.88 1034.9 1624.46"/><polygon class="cls-2" points="1150.67 1603.76 1137.83 1652.12 1122.1 1646.39 1132.23 1606.38 1061.65 1587.58 1051.69 1627.76 1034.9 1624.46 1043.3 1594.9 930.7 1566.24 935.12 1548.53 938.38 1549.43 957.72 1475.03 954.64 1474.13 958.62 1458.61 948.86 1456.32 945.79 1467.71 889.58 1452.88 892.38 1442.12 898.88 1443.94 901.32 1434.81 894.82 1433 895.81 1429.29 882.07 1425.58 885.69 1412.75 899.06 1416.09 900.06 1412.21 907.02 1413.74 909.19 1404.97 902.68 1403.26 905.75 1392.59 939.82 1401.27 936.91 1413.36 939.01 1415.46 943.62 1397.74 946.78 1398.64 965.94 1324.34 962.87 1323.52 967.48 1305.81 1122.65 1346.12 1123.38 1343.23 1120.21 1342.41 1126 1320.09 1177.33 1333.46 1171.55 1355.61 1168.56 1354.8 1167.75 1357.88 1240.23 1377.4 1217.46 1465.18 1222.24 1466.44 1184.65 1612.62 1150.67 1603.76"/><polygon class="cls-2" points="1055.05 1268.11 1045.56 1304.72 1107.83 1320.45 1117.14 1284.29 1055.05 1268.11"/><polyline class="cls-2" points="548.5 1347.12 553.74 1329.13 538.38 1325.15 540 1319.63 520.39 1314.93 519.22 1320.09 504.13 1316.11 498.7 1334.37 548.5 1347.12"/><polygon class="cls-2" points="1657.13 1262.23 1655.23 1269.55 1651.25 1268.38 1646.28 1287.72 1647.55 1288 1641.67 1310.96 1742.62 1337.17 1735.39 1365.74 1788.8 1379.93 1796.21 1351.18 1814.92 1356.06 1822.06 1327.59 1823.78 1328.04 1827.48 1313.94 1823.69 1312.85 1825.31 1305.89 1657.13 1262.23"/><polyline class="cls-2" points="1670.41 1188.83 1657.67 1238 1671.04 1241.53 1669.87 1245.78 1695.72 1252.47 1696.8 1248.22 1717.95 1253.73 1718.31 1252.38 1731.68 1255.81 1731.32 1257.17 1791.7 1272.9 1796.39 1254.46 1800.82 1255.63 1802 1251.2 1802.27 1251.2 1805.88 1237.28 1801.18 1236.02 1802.09 1232.58 1757.26 1220.92 1757.62 1219.38 1747.95 1216.85 1747.05 1220.38 1744.79 1219.75 1740.82 1235.11 1702.22 1225.08 1709 1198.86 1670.41 1188.83"/><polygon class="cls-2" points="1686.41 1137.03 1680.62 1159.27 1693.64 1162.61 1691.02 1172.64 1810.22 1203.65 1813.51 1190.91 1814.76 1192.17 1819.35 1175.81 1816.55 1174.36 1820.88 1161.53 1701.95 1130.52 1699.42 1140.37 1686.41 1137.03"/><polygon class="cls-2" points="1846.91 1167.86 1836.43 1208.44 1847.46 1211.25 1846.82 1213.78 1933.04 1236.02 1935.75 1225.62 1938.01 1226.25 1944.25 1202.12 1942.53 1200.4 1945.33 1190.73 1858.3 1168.22 1857.67 1170.66 1846.91 1167.86"/><polyline class="cls-2" points="1919.66 1282.3 1937.29 1286.91 1946.96 1250.03 1929.34 1245.33 1919.66 1282.3"/><polyline class="cls-2" points="1924.1 1292.24 1918.4 1314.3 1930.6 1317.47 1936.3 1295.41 1924.1 1292.24"/><polyline class="cls-2" points="1867.43 1366.55 1867.16 1367.73 1880.08 1371.16 1880.35 1370.17 1902.49 1376.13 1906.83 1359.95 1884.6 1353.98 1885.78 1349.47 1872.76 1345.94 1871.58 1350.1 1849.35 1344.13 1844.93 1360.5 1867.43 1366.55"/><polyline class="cls-2" points="1872.67 1342.69 1871.95 1345.67 1872.76 1345.85 1872.76 1345.94 1879.63 1347.75 1880.53 1344.49 1908.91 1352.09 1914.33 1331.66 1856.22 1316.2 1850.8 1336.81 1872.67 1342.69"/><polyline class="cls-2" points="2233.09 1431.64 2249.53 1370.35 2188.17 1353.8 2171.63 1415.01 2233.09 1431.64"/><polyline class="cls-2" points="2121.92 1320.27 2121.29 1322.53 2159.79 1332.56 2160.33 1330.39 2192.32 1338.71 2190.7 1344.95 2214.92 1351.37 2222.96 1320.63 2166.48 1305.89 2167.02 1303.9 2128.34 1293.78 2127.8 1295.86 2074.12 1281.76 2071.77 1281.21 2063.81 1311.77 2066.25 1312.4 2087.85 1318.1 2089.48 1311.77 2121.92 1320.27"/><polyline class="cls-2" points="2260.83 1306.53 2274.57 1310.05 2282.52 1279.68 2274.11 1277.51 2268.15 1300.38 2262.64 1299.48 2261.92 1302.19 2260.83 1306.53"/><polyline class="cls-2" points="2261.92 1302.19 2268.51 1276.88 2095.9 1231.95 2085.41 1229.32 2078.91 1254.46 2080.98 1255 2261.92 1302.19"/><polyline class="cls-2" points="2034.71 1243.25 2035.43 1240.54 2056.76 1246.14 2062.91 1222.73 2025.22 1212.78 2024.5 1215.49 2002.45 1209.71 1996.21 1233.12 2034.71 1243.25"/><polyline class="cls-2" points="2013.74 1306.17 2012.66 1310.23 2022.79 1312.94 2023.78 1308.88 2050.62 1315.93 2054.41 1301.46 2056.4 1293.87 1992.6 1277.15 1991.06 1282.93 1986.18 1281.66 1983.56 1291.61 1988.26 1292.88 1986.63 1299.12 2013.74 1306.17"/><polyline class="cls-2" points="2002.72 1449.81 2006.61 1435.17 1949.94 1420.34 1946.14 1434.98 2002.72 1449.81"/><polygon class="cls-2" points="2120.39 1458.76 2116.41 1473.22 2131.78 1477.47 2130.96 1480.37 2149.67 1485.52 2153.73 1470.96 2134.94 1465.81 2135.75 1463.01 2120.39 1458.76"/><polygon class="cls-2" points="2167.47 1437.7 2161.42 1459.3 2166.84 1460.84 2165.85 1464.37 2163.31 1463.64 2162.05 1468.25 2163.13 1468.61 2158.89 1483.62 2157.62 1483.62 2156.45 1488.5 2161.6 1489.95 2161.87 1488.86 2165.58 1489.95 2164.85 1492.3 2174.52 1495.01 2175.07 1492.93 2214.92 1503.42 2215.73 1500.34 2219.53 1501.34 2225.49 1479.55 2227.66 1480.09 2230.37 1470.15 2227.39 1469.34 2232.45 1454.51 2227.57 1453.15 2227.03 1455.05 2204.8 1448.9 2204.25 1450.98 2191.51 1447.55 2187.17 1463.73 2183.56 1462.83 2188.89 1443.76 2167.47 1437.7"/><path class="cls-2" d="M2074.39,1360.59l-5-1.27,3.7-14.19-13.83-3.71,1.27-4.7L2005.07,1322l-1.72,6.6-8.31-2.16-5.33,20.24-14.64-3.88L1963,1388.16l14.74,3.89-5.34,20.25,8.32,2.26-1.63,6.32,55.4,14.74,1.27-4.8,13.73,3.71,3.71-13.83.54.18,4.52,1.18,6.41-24,1.63.45,3.62-13.47-1.81-.45Zm-28.56,7.05-3.71-1-8.94,33.63,3.61.91-2,7.59-38.23-10.22,3.44-13,8.22,2.17,5.79-21.79-8.77-2.35,3.61-13.56,38.87,10.31Z"/><polyline class="cls-2" points="597.75 1326.15 599.2 1331.93 604.44 1340.52 610.23 1345.13 615.74 1346.94 622.61 1347.3 629.12 1345.4 633.73 1341.78 638.24 1336.99 632.01 1333.83 629.03 1337.72 623.51 1340.61 618.9 1341.15 613.57 1339.43 609.41 1336.36 607.07 1332.74 605.62 1328.59 605.08 1326.87 597.75 1326.15"/><polygon class="cls-2" points="700.06 1360.95 695.45 1378.3 728.17 1386.98 732.77 1369.54 712.08 1364.11 712.98 1359.95 719.4 1361.58 720.94 1354.53 728.62 1356.52 729.16 1354.26 773.81 1364.56 783.02 1327.05 771 1323.79 766.75 1339.79 757.27 1337.44 766.39 1304.72 794.86 1312.04 811.13 1247.86 793.29 1243.15 796.67 1231.68 804.53 1233.48 816.64 1187.11 783.11 1178.43 774.35 1213.33 770.64 1212.42 774.26 1197.96 766.12 1195.88 762.42 1210.34 758.8 1209.44 763.5 1191.09 559.35 1138.57 553.2 1163.96 571 1168.49 562.06 1204.65 554.92 1202.75 551.57 1216.04 559.71 1218.38 554.19 1239.9 551.12 1239.36 548.59 1250.21 559.35 1252.92 559.98 1250.3 611.76 1263.42 608.6 1277.51 620.91 1280.04 616.73 1293.06 639.33 1299.02 640.96 1287.72 653.7 1289.17 657.67 1276.69 709.28 1288.72 708.64 1291.43 720.12 1294.69 723.1 1283.66 719.49 1282.48 723.1 1267.74 730.88 1270.01 726.72 1285.56 762.87 1294.78 757.72 1315.57 733.35 1309.07 728.37 1329.73 712.8 1325.51 707.02 1347.39 709.19 1347.84 706.02 1362.48 700.06 1360.95"/><polygon class="cls-2" points="578.96 1170.48 570.01 1206.54 585.55 1210.7 582.39 1223.54 599.38 1227.97 611.85 1178.97 578.96 1170.48"/><polygon class="cls-2" points="641.86 1186.75 632.19 1224.54 658.13 1231.23 667.79 1193.44 641.86 1186.75"/><polygon class="cls-2" points="697.98 1200.85 685.51 1250.03 702.59 1254.64 705.75 1241.89 721.66 1245.78 730.97 1209.44 697.98 1200.85"/><polygon class="cls-2" points="779.14 1230.77 770.64 1228.69 769.92 1231.59 754.28 1227.25 756.91 1216.22 738.74 1211.52 729.45 1247.62 735.08 1249.3 733.95 1258.8 740.83 1260.75 748.68 1238.64 769.2 1243.79 770.64 1238.36 776.61 1239.99 779.14 1230.77"/><polygon class="cls-2" points="495.63 1121.21 468.25 1229.05 545.88 1248.94 553.65 1219.5 540.55 1215.95 542.9 1205.19 540 1204.56 555.5 1136.94 495.63 1121.21"/><polygon class="cls-2" points="507.02 1081.16 496.99 1119.31 623.78 1151.76 633.82 1113.8 507.02 1081.16"/><polygon class="cls-2" points="667.43 1113.89 657.31 1154.47 625.56 1146.05 623.78 1151.76 667.98 1163.8 680.45 1117.14 667.43 1113.89"/><polygon class="cls-2" points="531.15 1041.62 528.71 1046.18 514.79 1043.01 513.25 1048.16 527.5 1052.02 520.58 1083.33 540.64 1087.58 541.99 1082.07 811.22 1150.32 809.86 1157.64 823.87 1160.98 834.63 1118.86 820.8 1115.51 819.26 1121.84 699.88 1091.74 700.24 1088.57 663.28 1079.8 662.73 1082.16 543.8 1051.24 545.34 1045 531.15 1041.62"/><path class="cls-2" d="M676.11,1136.2l59.47,14.39,2.89-10.85,38.59,10-7,23.69s.81,5.7-.54,7c-4.51,4.51-4.88-1.45-4.88-1.45l-11-2.07-.45,1.62-19.43-5.06,1.63-6.15-4.07-1.27,1.26-4.51-59.9-15.45,3.08-11"/><polyline class="cls-2" points="708.55 1007.67 713.98 984.25 702.32 981.27 696.26 1004.5 708.55 1007.67"/><polyline class="cls-2" points="831.55 1073.66 829.93 1080.08 843.76 1083.51 847.64 1069.59 844.39 1068.68 847.91 1054.77 851.08 1055.49 854.6 1041.48 840.68 1038.04 838.96 1044.55 719.58 1014.08 720.85 1010.74 683.7 1001.34 681.44 1010.65 570.1 982.17 571.64 976.21 563.68 974.22 565.31 967.26 551.12 964.19 547.6 978.65 550.67 979.28 547.24 993.02 543.98 991.94 540.37 1005.95 554.28 1009.57 555.91 1003.33 625.23 1021.32 623.96 1027.1 641.13 1031.44 642.76 1025.47 675.21 1033.97 672.95 1043.46 709.73 1053.23 712.26 1043.1 831.55 1073.66"/><polyline class="cls-2" points="809.59 1101.41 810.04 1099.15 802.54 1097.16 807.7 1077.09 789.98 1072.58 791.97 1063.53 755.46 1054.22 747.69 1085.41 809.59 1101.41"/><polyline class="cls-2" points="609.23 1059.64 615.65 1033.88 603.9 1030.99 606.52 1020.59 573.35 1011.91 572.27 1015.8 528.8 1004.5 520.3 1036.77 609.23 1059.64"/><polyline class="cls-2" points="676.56 1082.97 688.04 1085.68 690.84 1072.66 701.96 1075.65 700.78 1080.35 714.34 1083.78 717.59 1070.22 704.22 1066.88 703.04 1071.49 691.84 1068.5 696.26 1049.7 685.33 1046.72 676.56 1082.97"/><polygon class="cls-2" points="707.2 962.01 581.4 929.92 583.84 920.7 595.68 923.69 601.82 900.73 715.87 929.83 707.2 962.01"/><path class="cls-2" d="M575.61,872.7,557.18,944l301.58,77.38,18.07-71ZM707.2,962,581.4,929.92l2.44-9.22,11.84,3,6.14-23,114,29.1Z"/><polygon class="cls-2" points="785.83 767.2 756.63 882.28 738.56 878.12 730.97 907.96 771.63 918.53 777.96 893.94 783.2 895.03 783.84 891.87 792.96 894.22 790.16 905.7 825.59 914.74 828.57 903.44 855.41 910.12 864.18 875.23 837.52 866.64 840.59 855.69 846.2 855.52 851.17 840.52 856.32 841.78 859.3 830.93 853.79 829.67 855.22 823.69 865.63 825.51 860.84 843.68 879.63 848.2 879.36 856.03 890.3 857.6 896.44 833.1 872.22 827.14 875.46 814.94 860.65 811.32 865.08 797.62 882.07 802.82 888.76 775.97 871.32 771.9 866.29 792.63 862.83 791.08 864.54 783.84 831.64 775.07 832.73 771.18 796.76 761.87 794.59 769.46 785.83 767.2"/><polyline class="cls-2" points="739.01 874.69 752.02 877.4 761.15 844.77 748.32 842.05 739.01 874.69"/><polyline class="cls-2" points="917.05 770.19 906.29 811.32 890.21 807.16 900.33 765.85 917.05 770.19"/><polyline class="cls-2" points="937.47 772 920.12 767.66 911.63 801.1 929.52 805.62 937.47 772"/><polygon class="cls-2" points="646.01 574.56 630.2 634.68 703.22 653.75 709.55 629.71 705.03 628.53 708.1 615.97 712.8 617.23 719.04 593.46 646.01 574.56"/><polygon class="cls-2" points="613.3 665.05 608.96 681.42 637.88 689.28 634.54 701.21 671.68 710.61 674.75 698.05 684.61 699.58 686.14 691.63 705.93 694.97 710.72 679.15 645.29 661.62 640.77 670.57 635.44 670.93 613.3 665.05"/><polygon class="cls-2" points="737.48 794.32 703.95 785.56 701.87 793.15 697.62 792.34 690.57 819.82 695 821.08 693.15 827.98 699.7 830.57 698.43 835.54 703.13 836.72 701.14 845.04 588.72 816.02 587.9 819.27 584.83 818.28 585.83 814.39 588.34 811.88 595.23 785.37 582.48 782.12 563.41 855.8 574.98 858.42 575.97 854.53 688.13 883.19 692.29 868.9 705.93 871.98 706.29 869.81 713.89 871.98 722.47 836.45 727.56 837.35 730 828.95 742.8 831.57 747.24 815.84 733.37 812.5 737.48 794.32"/><polygon class="cls-2" points="720.83 910.18 769.2 734.12 673.32 708.35 673.89 701.58 767.21 726.98 794.79 622.65 803.35 624.92 800.2 638.48 776.52 729.6 775.7 734.84 889.3 767.2 887.77 772.81 813.39 751.56 809.96 765.29 803.64 763.65 806.97 749.76 774.17 740.45 753.83 817.37 772 821.71 770.1 829.22 753.2 824.97 728.46 912.15 720.83 910.18"/><polygon class="cls-2" points="838.69 626.9 829.02 664.96 820.08 662.52 807.06 713.42 856.95 726.25 855.23 732.58 903.75 744.71 914.97 707.18 924.28 709.62 937.29 658.82 887.68 645.89 889.03 640.01 838.69 626.9"/><path class="cls-2" d="M930.71,688s-1.11-2.07,4-1.07S939,698.32,940,703.38s2.27,13.29-3.16,22.06-7.86,23.14-7.32,27.93,1.86,10.49-3.07,10.58-6.55-6.12-12.09-5.77-16.84-2.28-19.63-5.08l-2.8-2.8s-14.73,7.32-15.37-.09,3.8-9.49,3.8-9.49l23.4,2.7L915,707.18l9.31,2.44L930,687.29"/><polyline class="cls-2" points="1079.91 955.33 1102.13 961.02 1101.23 964.73 1110.18 966.9 1104.94 987.42 1095.81 985.34 1089.93 1007.67 1067.52 1002.06 1073.58 979.19 1064.45 977.29 1069.6 956.59 1078.91 959.03 1079.91 955.33"/><polyline class="cls-2" points="994.23 1035.24 991.79 1034.69 988.17 1033.43 986.37 1032.71 984.65 1031.62 982.84 1030.36 982.66 1032.35 982.75 1033.97 982.66 1036.14 972.54 1075.29 971.73 1078.09 971 1079.53 969.29 1082.52 971.54 1082.61 973.35 1082.34 975.97 1082.52 981.67 1083.78 994.23 1035.24"/><polyline class="cls-2" points="1003.27 991.03 1006.34 993.29 1008.24 994.38 1010.59 995.37 1035.98 1002.24 1038.51 1002.78 1041.22 1003.24 1044.57 1003.14 1047.82 1002.69 1044.3 1007.76 1042.58 1012.37 1039.87 1022.22 1012.57 1128.98 1012.12 1131.51 1012.12 1134.23 1012.39 1138.47 1009.41 1136.13 1007.33 1134.95 1004.89 1133.86 978.96 1126.99 976.88 1126.63 975.07 1126.45 972.99 1126.36 968.02 1126.72 971.09 1122.11 972.09 1119.76 972.81 1117.59 973.53 1115.06 981.67 1083.78 994.23 1035.24 1002.9 1001.97 1003.36 999.26 1003.63 996.91 1003.63 995.01 1003.27 991.03"/></g><g id="建築"><polygon class="cls-3" points="1684.71 1132.92 1678.93 1155.16 1691.95 1158.5 1689.33 1168.54 1808.53 1199.54 1811.82 1186.81 1813.07 1188.06 1817.66 1171.7 1814.86 1170.25 1819.19 1157.42 1700.26 1126.41 1697.73 1136.26 1684.71 1132.92"/><polygon class="cls-3" points="1845.22 1163.75 1834.74 1204.33 1845.76 1207.14 1845.13 1209.67 1931.35 1231.9 1934.06 1221.51 1936.32 1222.14 1942.55 1198.01 1940.84 1196.29 1943.64 1186.62 1856.61 1164.11 1855.97 1166.55 1845.22 1163.75"/><polygon class="cls-3" points="1388.29 1347.53 1380.51 1376.46 1404.65 1383.68 1407.36 1374.55 1427.96 1379.98 1425.07 1389.38 1455.89 1397.43 1458.42 1387.94 1493.39 1397.16 1491.13 1405.74 1515.44 1412.16 1523.13 1383.05 1521.95 1380.7 1391.63 1346.17 1388.29 1347.53"/><polyline class="cls-4" points="1326.2 1474.81 1327.1 1471.47 1337.95 1474.36 1339.3 1468.84 1345.36 1470.47 1358.37 1418.94 1352.5 1417.4 1355.48 1405.74 1266.55 1382.15 1265.56 1386.58 1262.76 1385.95 1265.74 1374.28 1257.61 1372.02 1254.62 1383.68 1253.99 1383.6 1236.82 1448.05 1237.54 1448.32 1234.47 1459.53 1243.05 1461.88 1245.86 1450.04 1248.57 1450.77 1247.84 1454.38 1326.2 1474.81"/><polygon class="cls-4" points="1351.96 1335.23 1309.84 1324.57 1310.2 1322.85 1299.81 1320.22 1299.45 1322.04 1256.61 1311.46 1256.61 1311.64 1251.37 1332.61 1292.88 1343.12 1290.86 1351.31 1303.17 1354.31 1305.03 1346.19 1346.71 1356.75 1351.96 1335.23"/><polyline class="cls-4" points="1421 1694.21 1461.22 1705.06 1467.45 1681.82 1427.24 1670.98 1421 1694.21"/><polygon class="cls-4" points="1318.34 1635.09 1291.76 1736.21 1350.24 1752.61 1361.81 1708.76 1370.57 1704.06 1384.22 1652.36 1318.34 1635.09"/><polyline class="cls-4" points="1222.09 1656.6 1230.49 1623.88 1158.37 1605.35 1149.97 1638.07 1222.09 1656.6"/><polyline class="cls-4" points="1270.08 1646.75 1269.99 1645.03 1269.72 1643.32 1269.36 1641.6 1268.81 1639.88 1268.09 1638.25 1267.18 1636.8 1266.19 1635.27 1265.11 1634 1263.84 1632.74 1262.49 1631.56 1261.04 1630.57 1259.5 1629.75 1257.88 1629.03 1256.25 1628.49 1254.53 1628.03 1252.81 1627.85 1251.1 1627.76 1249.29 1627.85 1247.57 1628.03 1245.86 1628.49 1244.23 1629.03 1242.6 1629.75 1241.07 1630.57 1239.62 1631.56 1238.26 1632.74 1237 1634 1235.91 1635.27 1234.92 1636.8 1234.02 1638.25 1233.29 1639.88 1232.75 1641.6 1232.39 1643.32 1232.12 1645.03 1232.03 1646.75 1232.12 1648.56 1232.39 1650.27 1232.75 1651.99 1233.29 1653.62 1234.02 1655.25 1234.92 1656.78 1235.91 1658.23 1237 1659.58 1238.26 1660.85 1239.62 1661.93 1241.07 1662.93 1242.6 1663.84 1244.23 1664.47 1245.86 1665.1 1247.57 1665.46 1249.29 1665.73 1251.1 1665.82 1252.81 1665.73 1254.53 1665.46 1256.25 1665.1 1257.88 1664.47 1259.5 1663.84 1261.04 1662.93 1262.49 1661.93 1263.84 1660.85 1265.11 1659.58 1266.19 1658.23 1267.18 1656.78 1268.09 1655.25 1268.81 1653.62 1269.36 1651.99 1269.72 1650.27 1269.99 1648.56 1270.08 1646.75"/><polyline class="cls-4" points="923.58 1644.58 928.64 1624.96 910.93 1620.35 905.78 1639.97 923.58 1644.58"/><polygon class="cls-4" points="866.01 1600.65 863.12 1611.4 865.38 1612.04 853.9 1655.34 852.27 1654.88 846.49 1676.49 861.94 1680.65 862.31 1679.02 866.74 1680.2 867.1 1678.66 875.95 1681.01 878.12 1672.88 934.97 1687.61 934.24 1694.84 941.75 1695.93 941.29 1697.73 960.45 1701.08 960.9 1699 968.32 1700.99 970.48 1694.21 989.55 1696.83 993.62 1671.97 981.06 1669.71 984.13 1651.63 936.96 1643.32 933.43 1661.12 882.55 1647.56 890.23 1618.54 896.56 1620.26 900.53 1605.16 894.3 1603.54 895.11 1600.65 866.01 1600.65"/><polygon class="cls-4" points="1033.21 1620.35 1136.14 1648.01 1131.35 1666.91 1203.65 1686.16 1194.07 1722.05 1095.38 1696.47 1090.14 1716.27 1087.07 1715.45 1086.26 1718.8 1027.24 1703.43 1028.14 1699.99 1025.07 1699.18 1030.4 1678.93 1018.65 1675.77 1033.21 1620.35"/><polygon class="cls-4" points="1053.36 1264 1043.87 1300.61 1106.13 1316.34 1115.45 1280.18 1053.36 1264"/><polyline class="cls-4" points="546.81 1343.01 552.05 1325.02 536.69 1321.04 538.31 1315.53 518.7 1310.82 517.53 1315.98 502.43 1312 497.01 1330.26 546.81 1343.01"/><polygon class="cls-4" points="1655.43 1258.12 1653.54 1265.44 1649.56 1264.27 1644.59 1283.61 1645.86 1283.89 1639.98 1306.85 1740.93 1333.07 1733.7 1361.63 1787.11 1375.82 1794.52 1347.08 1813.23 1351.95 1820.37 1323.48 1822.08 1323.93 1825.79 1309.83 1821.99 1308.74 1823.62 1301.79 1655.43 1258.12"/><polyline class="cls-4" points="1668.72 1184.72 1655.98 1233.89 1669.35 1237.42 1668.18 1241.67 1694.03 1248.36 1695.11 1244.11 1716.26 1249.62 1716.62 1248.27 1729.99 1251.7 1729.63 1253.06 1790 1268.79 1794.7 1250.35 1799.13 1251.52 1800.31 1247.09 1800.58 1247.09 1804.19 1233.17 1799.49 1231.9 1800.39 1228.47 1755.57 1216.81 1755.93 1215.27 1746.26 1212.74 1745.36 1216.27 1743.1 1215.64 1739.12 1231 1700.53 1220.97 1707.31 1194.75 1668.72 1184.72"/><polyline class="cls-4" points="1917.97 1278.19 1935.6 1282.8 1945.27 1245.92 1927.64 1241.22 1917.97 1278.19"/><polyline class="cls-4" points="1922.4 1288.13 1916.7 1310.19 1928.91 1313.36 1934.6 1291.3 1922.4 1288.13"/><polyline class="cls-4" points="1865.73 1362.44 1865.46 1363.62 1878.39 1367.05 1878.66 1366.06 1900.8 1372.02 1905.14 1355.85 1882.91 1349.88 1884.08 1345.36 1871.07 1341.83 1869.89 1345.99 1847.66 1340.02 1843.23 1356.39 1865.73 1362.44"/><polyline class="cls-4" points="1870.98 1338.58 1870.25 1341.56 1871.07 1341.74 1871.07 1341.83 1877.94 1343.64 1878.84 1340.38 1907.22 1347.98 1912.64 1327.55 1854.53 1312.09 1849.11 1332.7 1870.98 1338.58"/><polyline class="cls-4" points="2259.14 1302.42 2272.87 1305.94 2280.83 1275.57 2272.42 1273.4 2266.46 1296.27 2260.95 1295.37 2260.22 1298.08 2259.14 1302.42"/><polyline class="cls-4" points="2033.02 1239.14 2033.74 1236.43 2055.07 1242.03 2061.21 1218.62 2023.53 1208.67 2022.81 1211.38 2000.75 1205.6 1994.52 1229.01 2033.02 1239.14"/><polyline class="cls-4" points="2012.05 1302.06 2010.97 1306.12 2021.09 1308.83 2022.09 1304.77 2048.92 1311.82 2052.72 1297.35 2054.71 1289.76 1990.9 1273.04 1989.37 1278.82 1984.49 1277.56 1981.87 1287.5 1986.57 1288.77 1984.94 1295.01 2012.05 1302.06"/><polygon class="cls-4" points="2118.7 1454.65 2114.72 1469.11 2130.08 1473.36 2129.27 1476.26 2147.97 1481.41 2152.04 1466.85 2133.25 1461.7 2134.06 1458.9 2118.7 1454.65"/><polyline class="cls-4" points="596.06 1322.04 597.51 1327.82 602.75 1336.41 608.53 1341.02 614.05 1342.83 620.91 1343.19 627.42 1341.29 632.03 1337.67 636.55 1332.88 630.31 1329.72 627.33 1333.61 621.82 1336.5 617.21 1337.04 611.88 1335.32 607.72 1332.25 605.37 1328.63 603.93 1324.47 603.38 1322.76 596.06 1322.04"/><polygon class="cls-4" points="665.74 1109.78 655.62 1150.36 623.87 1141.94 622.09 1147.65 666.28 1159.69 678.76 1113.03 665.74 1109.78"/><polyline class="cls-4" points="706.86 1003.56 712.28 980.14 700.63 977.16 694.57 1000.39 706.86 1003.56"/><polyline class="cls-4" points="674.87 1078.86 686.35 1081.57 689.15 1068.56 700.26 1071.54 699.09 1076.24 712.65 1079.67 715.9 1066.12 702.52 1062.77 701.35 1067.38 690.14 1064.39 694.57 1045.59 683.64 1042.61 674.87 1078.86"/><polyline class="cls-4" points="737.32 870.58 750.33 873.29 759.46 840.66 746.63 837.94 737.32 870.58"/><polygon class="cls-4" points="644.32 570.45 628.51 630.57 701.53 649.64 707.86 625.6 703.34 624.42 706.41 611.86 711.11 613.12 717.34 589.35 644.32 570.45"/><polygon class="cls-4" points="611.61 660.94 607.27 677.31 636.19 685.17 632.85 697.1 669.99 706.5 673.06 693.94 682.91 695.47 684.45 687.52 704.24 690.86 709.03 675.04 643.6 657.51 639.08 666.46 633.75 666.82 611.61 660.94"/><polygon class="cls-4" points="719.14 906.07 767.5 730.01 671.63 704.24 672.2 697.47 765.51 722.87 793.1 618.54 801.65 620.81 798.5 634.37 774.82 725.49 774.01 730.73 887.61 763.09 886.07 768.7 811.7 747.46 808.27 761.18 801.94 759.54 805.28 745.65 772.48 736.34 752.14 813.26 770.3 817.6 768.4 825.11 751.51 820.86 726.76 908.04 719.14 906.07"/><polyline class="cls-4" points="1078.21 951.22 1100.44 956.91 1099.54 960.62 1108.48 962.79 1103.24 983.31 1094.12 981.23 1088.24 1003.56 1065.83 997.95 1071.88 975.08 1062.76 973.18 1067.91 952.48 1077.22 954.92 1078.21 951.22"/><polyline class="cls-4" points="992.54 1031.13 990.1 1030.59 986.48 1029.32 984.67 1028.6 982.96 1027.51 981.15 1026.25 980.97 1028.24 981.06 1029.86 980.97 1032.03 970.85 1071.17 970.03 1073.98 969.31 1075.42 967.59 1078.41 969.85 1078.5 971.66 1078.23 974.28 1078.41 979.97 1079.67 992.54 1031.13"/><polyline class="cls-4" points="1001.57 986.92 1004.64 989.18 1006.54 990.27 1008.89 991.26 1034.29 998.13 1036.82 998.67 1039.53 999.13 1042.88 999.04 1046.13 998.58 1042.6 1003.65 1040.89 1008.26 1038.17 1018.11 1010.88 1124.87 1010.43 1127.4 1010.43 1130.12 1010.7 1134.37 1007.72 1132.02 1005.64 1130.84 1003.2 1129.75 977.26 1122.88 975.18 1122.52 973.38 1122.34 971.3 1122.25 966.33 1122.61 969.4 1118 970.39 1115.65 971.12 1113.48 971.84 1110.95 979.97 1079.67 992.54 1031.13 1001.21 997.86 1001.66 995.15 1001.93 992.8 1001.93 990.9 1001.57 986.92"/><polyline class="cls-4" points="2231.39 1427.53 2247.84 1366.24 2186.47 1349.69 2169.94 1410.9 2231.39 1427.53"/><polygon class="cls-4" points="2165.78 1433.59 2159.72 1455.19 2165.15 1456.73 2164.15 1460.26 2161.62 1459.53 2160.36 1464.14 2161.44 1464.51 2157.19 1479.51 2155.93 1479.51 2154.75 1484.39 2159.9 1485.84 2160.17 1484.75 2163.88 1485.84 2163.16 1488.19 2172.83 1490.9 2173.37 1488.82 2213.23 1499.31 2214.04 1496.23 2217.84 1497.23 2223.8 1475.44 2225.97 1475.98 2228.68 1466.04 2225.7 1465.23 2230.76 1450.4 2225.88 1449.04 2225.34 1450.94 2203.1 1444.8 2202.56 1446.87 2189.82 1443.44 2185.48 1459.62 2181.87 1458.72 2187.2 1439.64 2165.78 1433.59"/><polyline class="cls-5" points="2120.23 1316.16 2119.6 1318.42 2158.1 1328.45 2158.64 1326.28 2190.63 1334.6 2189.01 1340.84 2213.23 1347.26 2221.27 1316.52 2164.79 1301.79 2165.33 1299.79 2126.65 1289.67 2126.11 1291.75 2072.42 1277.65 2070.07 1277.1 2062.12 1307.66 2064.56 1308.29 2086.16 1313.99 2087.79 1307.66 2120.23 1316.16"/><polyline class="cls-5" points="2260.22 1298.08 2266.82 1272.77 2094.2 1227.84 2083.72 1225.21 2077.21 1250.35 2079.29 1250.89 2260.22 1298.08"/><polygon class="cls-6" points="1148.97 1599.65 1136.14 1648.01 1120.41 1642.28 1130.54 1602.27 1059.95 1583.47 1050 1623.65 1033.21 1620.35 1041.61 1590.79 929 1562.13 933.43 1544.41 936.69 1545.32 956.02 1470.92 952.95 1470.02 956.93 1454.51 947.17 1452.21 944.1 1463.6 887.88 1448.77 890.68 1438.02 897.19 1439.83 899.63 1430.69 893.12 1428.89 894.12 1425.18 880.38 1421.47 884 1408.64 897.37 1411.98 898.37 1408.1 905.32 1409.63 907.49 1400.86 900.99 1399.15 904.06 1388.48 938.13 1397.16 935.21 1409.24 937.32 1411.35 941.93 1393.63 945.09 1394.53 964.25 1320.22 961.18 1319.41 965.79 1301.69 1120.96 1342.01 1121.68 1339.12 1118.52 1338.31 1124.3 1315.98 1175.64 1329.36 1169.85 1351.5 1166.87 1350.69 1166.06 1353.77 1238.54 1373.29 1215.76 1461.07 1220.55 1462.34 1182.96 1608.51 1148.97 1599.65"/><polygon class="cls-6" points="698.37 1356.84 693.76 1374.19 726.47 1382.87 731.08 1365.43 710.39 1360 711.29 1355.85 717.71 1357.47 719.24 1350.42 726.92 1352.41 727.47 1350.15 772.11 1360.45 781.33 1322.94 769.31 1319.68 765.06 1335.68 755.57 1333.34 764.7 1300.61 793.17 1307.93 809.44 1243.75 791.59 1239.05 794.98 1227.57 802.84 1229.38 814.95 1183 781.42 1174.32 772.65 1209.21 768.95 1208.31 772.56 1193.85 764.43 1191.77 760.73 1206.23 757.11 1205.33 761.81 1186.98 557.65 1134.46 551.51 1159.86 569.31 1164.38 560.37 1200.54 553.22 1198.64 549.88 1211.93 558.01 1214.28 552.5 1235.79 549.43 1235.25 546.9 1246.1 557.65 1248.81 558.29 1246.19 610.06 1259.31 606.91 1273.4 619.22 1275.93 615.04 1288.95 637.63 1294.91 639.26 1283.61 652 1285.06 655.98 1272.59 707.59 1284.61 706.95 1287.32 718.43 1290.58 721.41 1279.55 717.8 1278.37 721.41 1263.63 729.18 1265.89 725.03 1281.44 761.18 1290.67 756.02 1311.46 731.66 1304.96 726.67 1325.62 711.11 1321.4 705.33 1343.28 707.49 1343.73 704.33 1358.37 698.37 1356.84"/><polygon class="cls-6" points="577.26 1166.37 568.32 1202.43 583.86 1206.6 580.7 1219.43 597.69 1223.86 610.16 1174.87 577.26 1166.37"/><polygon class="cls-6" points="640.16 1182.64 630.5 1220.42 656.43 1227.12 666.1 1189.33 640.16 1182.64"/><polygon class="cls-6" points="696.29 1196.74 683.82 1245.92 700.9 1250.53 704.06 1237.78 719.97 1241.67 729.27 1205.33 696.29 1196.74"/><polygon class="cls-6" points="777.45 1226.66 768.95 1224.58 768.23 1227.48 752.59 1223.14 755.21 1212.11 737.05 1207.41 727.75 1243.51 733.38 1245.19 732.26 1254.68 739.13 1256.64 746.99 1234.53 767.5 1239.68 768.95 1234.25 774.91 1235.88 777.45 1226.66"/><polygon class="cls-6" points="493.94 1117.1 466.56 1224.94 544.19 1244.83 551.96 1215.39 538.86 1211.84 541.21 1201.08 538.31 1200.45 553.8 1132.83 493.94 1117.1"/><polygon class="cls-6" points="505.32 1077.05 495.29 1115.2 622.09 1147.65 632.12 1109.69 505.32 1077.05"/><polygon class="cls-6" points="529.46 1037.51 527.01 1042.07 513.1 1038.9 511.56 1044.05 525.81 1047.91 518.88 1079.22 538.95 1083.47 540.3 1077.96 809.53 1146.21 808.17 1153.53 822.18 1156.87 832.93 1114.75 819.11 1111.4 817.57 1117.73 698.19 1087.63 698.55 1084.46 661.58 1075.69 661.04 1078.05 542.11 1047.13 543.64 1040.89 529.46 1037.51"/><path class="cls-6" d="M674.42,1132.09l59.46,14.39,2.9-10.85,38.59,10-7,23.69s.81,5.7-.55,7.05c-4.51,4.51-4.88-1.45-4.88-1.45l-11-2.07-.45,1.62-19.43-5.06,1.62-6.15-4.06-1.26,1.26-4.52L671,1142.06l3.08-11"/><polyline class="cls-6" points="829.86 1069.55 828.23 1075.96 842.06 1079.4 845.95 1065.48 842.7 1064.57 846.22 1050.65 849.38 1051.38 852.91 1037.37 838.99 1033.93 837.27 1040.44 717.89 1009.97 719.15 1006.63 682.01 997.23 679.75 1006.54 568.41 978.06 569.94 972.1 561.99 970.11 563.62 963.15 549.43 960.08 545.9 974.54 548.98 975.17 545.54 988.91 542.29 987.83 538.67 1001.84 552.59 1005.46 554.22 999.22 623.54 1017.21 622.27 1022.99 639.44 1027.33 641.07 1021.37 673.51 1029.86 671.25 1039.35 708.04 1049.12 710.57 1038.99 829.86 1069.55"/><polyline class="cls-6" points="807.9 1097.3 808.35 1095.04 800.85 1093.05 806 1072.98 788.29 1068.46 790.28 1059.42 753.76 1050.11 746 1081.3 807.9 1097.3"/><polyline class="cls-6" points="607.54 1055.54 613.96 1029.77 602.21 1026.88 604.83 1016.48 571.66 1007.8 570.58 1011.69 527.11 1000.39 518.61 1032.66 607.54 1055.54"/><polygon class="cls-6" points="705.51 957.9 579.7 925.81 582.14 916.59 593.98 919.58 600.13 896.62 714.18 925.72 705.51 957.9"/><path class="cls-6" d="M573.92,868.59l-18.44,71.33,301.58,77.38,18.08-71ZM705.51,957.9,579.7,925.81l2.44-9.22,11.84,3,6.15-23,114,29.1Z"/><polygon class="cls-6" points="784.13 763.09 754.94 878.17 736.87 874.01 729.27 903.85 769.94 914.42 776.27 889.83 781.51 890.92 782.14 887.76 791.27 890.11 788.47 901.59 823.9 910.63 826.88 899.33 853.72 906.01 862.49 871.12 835.83 862.53 838.9 851.58 844.5 851.41 849.47 836.41 854.62 837.67 857.61 826.83 852.09 825.56 853.53 819.58 863.93 821.4 859.14 839.57 877.94 844.09 877.67 851.92 888.61 853.49 894.75 828.99 870.53 823.03 873.77 810.83 858.96 807.21 863.38 793.51 880.38 798.71 887.07 771.86 869.63 767.79 864.59 788.52 861.14 786.97 862.85 779.73 829.95 770.96 831.04 767.07 795.07 757.76 792.9 765.35 784.13 763.09"/><polyline class="cls-6" points="915.36 766.08 904.6 807.21 888.52 803.05 898.64 761.74 915.36 766.08"/><polyline class="cls-6" points="935.78 767.89 918.43 763.55 909.93 796.99 927.83 801.51 935.78 767.89"/><polygon class="cls-6" points="735.78 790.21 702.25 781.45 700.17 789.04 695.93 788.23 688.88 815.71 693.3 816.97 691.46 823.87 698.01 826.46 696.74 831.43 701.44 832.61 699.45 840.93 587.02 811.91 586.21 815.16 583.14 814.17 584.13 810.28 586.64 807.77 593.53 781.26 580.79 778.01 561.72 851.69 573.29 854.31 574.28 850.42 686.44 879.08 690.59 864.79 704.24 867.87 704.6 865.7 712.19 867.87 720.78 832.34 725.87 833.25 728.31 824.84 741.11 827.46 745.54 811.73 731.68 808.38 735.78 790.21"/><polygon class="cls-6" points="837 622.79 827.33 660.85 818.38 658.41 805.37 709.31 855.26 722.14 853.54 728.47 902.06 740.6 913.28 703.07 922.59 705.51 935.6 654.71 885.98 641.78 887.34 635.9 837 622.79"/><path class="cls-6" d="M929,683.89s-1.11-2.07,4.05-1.07,4.25,11.39,5.24,16.45,2.26,13.29-3.16,22.06-7.86,23.14-7.32,27.93,1.86,10.49-3.08,10.58-6.54-6.12-12.08-5.77S895.83,751.79,893,749l-2.79-2.8s-14.74,7.32-15.37-.09,3.79-9.49,3.79-9.49l23.4,2.7,11.22-36.24,9.31,2.44,5.72-22.33"/><polyline class="cls-6" points="2001.03 1445.7 2004.91 1431.06 1948.25 1416.23 1944.45 1430.88 2001.03 1445.7"/><path class="cls-6" d="M2072.7,1356.48l-5-1.27,3.7-14.19-13.83-3.71,1.27-4.7-55.49-14.73-1.72,6.59-8.32-2.16-5.33,20.24-14.64-3.88-12.11,45.38,14.73,3.89-5.33,20.25,8.32,2.26-1.63,6.32,55.4,14.74,1.26-4.8,13.74,3.71,3.7-13.83.55.18,4.52,1.18,6.41-24,1.63.45,3.62-13.47-1.81-.45Zm-28.56,7-3.71-1-9,33.63,3.62.91-2,7.59-38.23-10.22,3.44-13,8.22,2.17,5.78-21.79-8.76-2.35,3.61-13.56,38.86,10.31Z"/><polyline class="cls-6" points="1358.92 1479.06 1468.81 1508.08 1487.34 1437.56 1377.53 1408.55 1358.92 1479.06"/></g></g><g id="建築_文字_中英文"><text class="cls-7" transform="translate(1652.38 1315.43)">公共衛生學院</text><text class="cls-7" transform="translate(1244.5 1435.17)">會議中心暨<tspan x="-10.5" y="25.2">醫學研究大樓</tspan></text></g><g id="圖內文字_中英文版"><g id="校外道路_文字_中英文"><text class="cls-8" transform="translate(1115.56 1094.31)">聯合辦公大樓</text><text class="cls-9" transform="translate(1088.44 1119.43)">Central Government Office <tspan x="72" y="19.2">Building</tspan></text><text class="cls-8" transform="translate(1810.25 967.87)">成功高中</text><text class="cls-9" transform="translate(1793.83 996.99)">Taipei Municipal <tspan x="28" y="19.2">Chenggong </tspan><tspan x="24" y="38.4">High School</tspan></text><text class="cls-8" transform="translate(2104.8 1045.26)">國立臺北商業<tspan x="50.6" y="27.6">大學</tspan></text><text class="cls-9" transform="translate(2029.67 1104.82)">National Taipei University of Business</text><text class="cls-8" transform="translate(851.85 1988.85)">中正紀念堂</text><text class="cls-9" transform="translate(852.07 2017.97)">Chiang Kai-shek <tspan x="12" y="19.2">Memorial Hall</tspan></text><text class="cls-8" transform="translate(509.22 1553.68)">臺北賓館</text><text class="cls-9" transform="translate(488.79 1580.67)">Taipei Guest House</text><text class="cls-8" transform="translate(234.79 1010.17)">二二八<tspan x="-12.65" y="27.6">紀念公園</tspan></text><text class="cls-9" transform="translate(232.74 1066.46)">228 Peace <tspan x="-12" y="19.2">Memorial Park</tspan></text><text class="cls-10" transform="translate(439.1 235.11)">臺北車站</text><text class="cls-11" transform="translate(388.48 268.71)">Taipei Railway Station</text></g><g id="文字_重點區塊_中英文"><text class="cls-12" transform="translate(570.65 1136.86)">NTU Hospital</text><text class="cls-13" transform="translate(595.39 1163.54)">West Site <tspan x="-26.89" y="20.4">Original Building </tspan></text><text class="cls-14" transform="translate(551.82 1106.08)">臺大醫院西址</text><text class="cls-12" transform="translate(1015.68 1491.18)">NTU Hospital</text><text class="cls-13" transform="translate(1042.78 1517.86)">East Site <tspan x="-17.69" y="20.4">Main Building </tspan></text><text class="cls-14" transform="translate(996.86 1460.41)">臺大醫院東址</text><text class="cls-13" transform="translate(788.23 662.54)">NTUH Children and <tspan x="12.79" y="20.4">Women Building </tspan></text><text class="cls-15" transform="translate(763.57 631.77)">臺大醫院兒醫大樓</text></g></g></svg>